<?xml version="1.0" encoding="utf-8"?>
<!-- Generator: Adobe Illustrator 25.2.0, SVG Export Plug-In . SVG Version: 6.00 Build 0)  -->
<svg version="1.1" id="图层_1" xmlns="http://www.w3.org/2000/svg" xmlns:xlink="http://www.w3.org/1999/xlink" x="0px" y="0px"
	 viewBox="0 0 326.2 333.2" style="enable-background:new 0 0 326.2 333.2;" xml:space="preserve">
<style type="text/css">
	.st0{fill:#FFFFFF;}
	.st1{fill:#2F5596;}
</style>
<rect class="st0" width="326.2" height="333.2"/>
<path class="st1" d="M207.1,164c0-7.8,0.3-15.1-0.1-22.4c-0.2-2.8-1.4-5.5-3.3-7.6c-11.8-11.8-23.8-23.3-35.8-34.9
	c-0.8-0.8-1.7-1.5-3.4-3v67.4h-24.8V60.8c7.9,0,15.5-0.2,23.1,0.2c1.8,0.1,3.8,1.9,5.2,3.3c12,11.4,23.7,22.9,35.6,34.4
	c0.8,0.8,1.7,1.5,3.3,2.9V61.2h25.4c0.1,1.5,0.2,3.1,0.2,4.7c0,31-0.1,62,0.1,93c0,4.3-1.3,5.4-5.4,5.2
	C220.7,163.8,214.3,164,207.1,164z"/>
<path class="st1" d="M79.7,59.1c29.9,0.2,53.1,23.9,53,54c-0.1,28.9-24.6,53-53.5,52.8c-29.4-0.3-53.6-24.4-53.5-53.5
	C25.9,82.8,49.9,58.9,79.4,59l0,0L79.7,59.1z M78.9,140.4c15.5,0.2,28.3-12.1,28.5-27.7c0.2-15.5-12.1-28.3-27.7-28.5
	C64.2,84,51.4,96.3,51.2,111.9v0.4C51.1,127.6,63.5,140.2,78.9,140.4C78.8,140.3,78.8,140.4,78.9,140.4L78.9,140.4z"/>
<path class="st1" d="M264.4,83v29.4h18.9c4.3,0,8.7,0.1,13,0c3-0.1,4.2,0.9,4.1,4c-0.2,4.5-0.2,9,0,13.5c0.2,3.9-1,5.3-5,5.1
	c-9-0.3-18-0.1-27-0.1c-1.1,0-2.3,0.2-3.8,0.3v6.3h35.7c0,7.1,0.1,13.7-0.1,20.3c-0.4,1.1-1.4,1.9-2.5,2.2
	c-19.3,0.1-38.6,0.1-58.4,0.1v-103h61c0,6.7,0.1,13.2-0.2,19.8c0,0.7-2.7,1.9-4.2,1.9C285.6,83.1,275.3,83,264.4,83z"/>
<path class="st1" d="M117.1,272v-90.6h54.1v19.2h-31.4v26.3h31.4v19.6h-31.5v6.2h31.5V272H117.1z"/>
<path class="st1" d="M246,181.2h54v19.3h-31.4v26.4H300v19.6h-31c-1.6,4.7-0.6,6.5,4,6.4c8.9-0.2,17.9-0.1,27.1-0.1V272H246V181.2z"
	/>
<path class="st1" d="M48.4,272.1H26.1V181c15,0.7,30.3-3.1,43.8,7c10.6,8,14.6,18.9,12.5,31.6c-2.1,12.2-9.7,20.5-21.5,24.7
	c-2.8,1-5.7,1.7-8.7,1.9c-3.2,0.2-3.9,1.5-3.8,4.4C48.5,257.5,48.4,264.5,48.4,272.1z M48.7,201.4v25.1c9.2-0.1,14.8-5.4,14.5-13.4
	C62.8,206.4,56.3,199.8,48.7,201.4z"/>
<path class="st1" d="M239.6,181.6v24.5c-7.6-4.3-15.4-6.1-23.1-2.7c-4.7,2-8.8,5.2-12,9.2c-6.8,8.8-6.2,20.6,0.3,29.2
	c7.6,10.1,17.6,11.9,34.9,5.9c0,7.3,0.1,14.4-0.2,21.5c0,1.1-1.9,2.8-3.3,3.2c-22.4,6.7-47.6-6.2-55.8-28.6
	c-6.7-18.4-3.5-35.4,9.8-49.5S220.4,176.2,239.6,181.6z"/>
<path class="st1" d="M111,272.5H92.1c-1-0.1-2.1-0.2-3.1-0.4v-90.8h22V272.5z"/>
</svg>
