<?xml version="1.0" standalone="no"?><!DOCTYPE svg PUBLIC "-//W3C//DTD SVG 1.1//EN" "http://www.w3.org/Graphics/SVG/1.1/DTD/svg11.dtd"><svg t="1648966262779" class="icon" viewBox="0 0 1024 1024" version="1.1" xmlns="http://www.w3.org/2000/svg" p-id="4697" xmlns:xlink="http://www.w3.org/1999/xlink" height="100%"><defs><style type="text/css"></style></defs><path d="M514.56 748.373333c-128 0-231.253333-104.106667-231.253333-231.253333 0-128 104.106667-231.253333 231.253333-231.253333 128 0 231.253333 104.106667 231.253333 231.253333 0.853333 128-103.253333 231.253333-231.253333 231.253333zM516.266667 988.16c-15.36 0-28.16-12.8-28.16-28.16v-83.626667c0-15.36 12.8-28.16 28.16-28.16 15.36 0 28.16 12.8 28.16 28.16v83.626667c0 15.36-12.8 28.16-28.16 28.16z m0 0M516.266667 191.146667c-15.36 0-28.16-12.8-28.16-28.16V79.36c0-15.36 12.8-28.16 28.16-28.16 15.36 0 28.16 12.8 28.16 28.16v83.626667c0 15.36-12.8 28.16-28.16 28.16z m0 0M202.24 856.746667c-6.826667 0-14.506667-2.56-19.626667-8.533334-11.093333-11.093333-11.093333-29.013333 0-39.253333l59.733334-59.733333c11.093333-11.093333 29.013333-11.093333 39.253333 0 11.093333 11.093333 11.093333 29.013333 0 39.253333l-59.733333 59.733333c-5.12 5.973333-11.946667 8.533333-19.626667 8.533334z m0 0M766.293333 292.693333c-6.826667 0-14.506667-2.56-19.626666-8.533333-11.093333-11.093333-11.093333-29.013333 0-39.253333l59.733333-59.733334c11.093333-11.093333 29.013333-11.093333 39.253333 0 11.093333 11.093333 11.093333 29.013333 0 39.253334l-59.733333 59.733333c-5.12 5.973333-12.8 8.533333-19.626667 8.533333z m0 0M261.973333 292.693333c-6.826667 0-14.506667-2.56-19.626666-8.533333l-59.733334-59.733333c-11.093333-11.093333-11.093333-29.013333 0-39.253334 11.093333-11.093333 29.013333-11.093333 39.253334 0l59.733333 59.733334c11.093333 11.093333 11.093333 29.013333 0 39.253333-5.12 5.973333-12.8 8.533333-19.626667 8.533333z m0 0" fill="#f88566" p-id="4698"></path><path d="M825.173333 856.746667c-6.826667 0-14.506667-2.56-19.626666-8.533334l-59.733334-59.733333c-11.093333-11.093333-11.093333-29.013333 0-39.253333s29.013333-11.093333 39.253334 0l59.733333 59.733333c11.093333 11.093333 11.093333 29.013333 0 39.253333-5.12 5.973333-11.946667 8.533333-19.626667 8.533334z m0 0M150.186667 554.666667H66.56c-15.36 0-28.16-12.8-28.16-28.16 0-15.36 12.8-28.16 28.16-28.16h83.626667c15.36 0 28.16 12.8 28.16 28.16 0 15.36-12.8 28.16-28.16 28.16z m0 0" fill="#f88566" p-id="4699"></path><path d="M947.2 554.666667h-83.626667c-15.36 0-28.16-12.8-28.16-28.16 0-15.36 12.8-28.16 28.16-28.16h83.626667c15.36 0 28.16 12.8 28.16 28.16 0 15.36-11.946667 28.16-28.16 28.16z m0 0" fill="#f88566" p-id="4700"></path></svg>